<?xml version="1.0" encoding="UTF-8"?>
<svg id="Capa_1" data-name="Capa 1" xmlns="http://www.w3.org/2000/svg" viewBox="0 0 1280 800">
  <defs>
    <style>
      .cls-1 {
        fill: none;
        stroke: #fff;
        stroke-width: 6px;
      }

      .cls-1, .cls-2 {
        stroke-miterlimit: 10;
      }

      .cls-2 {
        stroke: #1d1d1b;
      }

      .cls-2, .cls-3, .cls-4 {
        fill: #fff;
      }

      .cls-4 {
        font-family: OCRA, OCRA;
        font-size: 71.1px;
      }
    </style>
  </defs>
  <rect class="cls-1" x="130.26" y="97.2" width="1013.37" height="605.6"/>
  <g>
    <path class="cls-3" d="M1064.75,149.27c0,.8-.4,1.2-1.2,1.2s-1.2-.4-1.2-1.2v-17.47h8.06c1.01,0,1.89.32,2.65.97.76.65,1.14,1.48,1.14,2.51v1.66c0,1.06-.38,1.89-1.12,2.5-.75.61-1.64.91-2.66.91h-2.2s5.39,7.72,5.39,7.72c.14.19.28.41.4.64.13.23.19.45.19.64,0,.32-.12.59-.35.8-.23.22-.52.33-.88.33-.22,0-.42-.06-.59-.18s-.32-.28-.47-.49l-6.62-9.46h-.55v8.93ZM1064.75,137.95h5.33c.48,0,.89-.06,1.22-.19s.5-.4.5-.82v-1.66c0-.42-.17-.7-.5-.85s-.74-.23-1.2-.23h-5.35v3.74Z"/>
    <path class="cls-3" d="M1090.29,148.07c.35,0,.64.1.86.29.22.19.34.5.34.91s-.12.7-.35.9c-.23.2-.52.3-.85.3h-10.66v-18.67h10.66c.35,0,.64.1.86.29.22.19.34.5.34.91s-.12.7-.35.9c-.23.2-.52.3-.85.3h-8.26v5.74h3.53c.35,0,.64.1.86.29s.34.5.34.91-.12.7-.35.9c-.23.2-.52.3-.85.3h-3.53v5.74h8.26Z"/>
    <path class="cls-3" d="M1103.37,150.47c-.88,0-1.6-.18-2.16-.54s-1.04-.94-1.44-1.74l-2.21-4.46c-.22-.45-.39-.86-.49-1.25-.1-.38-.16-.81-.16-1.27,0-.88.22-1.77.67-2.66l2.21-4.44c.42-.85.9-1.44,1.45-1.79.55-.34,1.3-.52,2.24-.52h4.08c.32,0,.6.09.84.28.24.18.36.49.36.92,0,.4-.12.7-.37.9-.25.2-.52.3-.83.3h-4c-.53,0-.87.05-1.04.16-.17.11-.37.39-.61.86l-2.1,4.17c-.18.35-.31.66-.39.92-.08.26-.12.56-.12.9,0,.26.02.48.07.67s.19.52.43.98l2.03,4.16c.22.46.44.75.66.87.22.12.6.18,1.14.18h3.92c.32,0,.6.09.84.28.24.18.36.49.36.92,0,.4-.12.7-.37.9s-.52.3-.83.3h-4.2Z"/>
  </g>
  <g>
    <path class="cls-2" d="M1047.05,133.67h3.94s.41.42.5.5l.07,13.72c.1.2-.52.81-.57.81h-3.94v6.45c0,.8-1.22,2.04-2.06,2.07h-52.23c-1.14-.02-2.06-1.11-2.19-2.19l.09-28.09c.24-.85.86-1.4,1.66-1.72l52.67-.06c.75-.02,2.06,1.29,2.06,1.94v6.57ZM1043.3,128.92h-48.96v24.54h48.78l.19-.19v-24.36Z"/>
    <path class="cls-2" d="M1028.99,130.7l11.49-.03c.58.03.97.48.94,1.06l-.1,19.45c-.19.37-.55.56-.96.54-3.55-.26-7.54.32-11.03,0-.72-.07-1.19-.25-1.19-1.06v-18.8c.06-.64.15-1.03.85-1.15Z"/>
    <path class="cls-2" d="M1012.29,131.09c.15-.29.69-.44,1.01-.43,3.55.26,7.53-.32,11.03,0,.45.04.72.13.99.51v20.03c-.27.38-.54.47-.99.51-3.54.33-7.56-.26-11.15,0-.86-.1-1.01-.68-1.07-1.44-.46-5.92.36-12.43,0-18.42,0-.27.06-.52.18-.76Z"/>
    <path class="cls-2" d="M1009.33,131.08c.11.16.15.79.17,1.02.36,5.92-.29,12.21,0,18.17.04.71-.31,1.38-1.07,1.44-3.59-.25-7.61.32-11.15,0-.44-.04-.74-.11-.96-.54l-.03-20c.28-.38.55-.47.99-.51,3.54-.33,7.57.26,11.15,0,.2,0,.82.29.9.41Z"/>
  </g>
  <text class="cls-4" transform="translate(366.06 623.55)"><tspan x="0" y="0">EJE CENTRAL</tspan></text>
  <circle class="cls-3" cx="174.6" cy="661.84" r="15.81"/>
  <g>
    <path class="cls-3" d="M204.56,668.19h7.57c.32,0,.59.09.79.26.21.18.31.45.31.84s-.11.64-.32.82c-.21.18-.47.28-.78.28h-9.77v-7.17c0-1.66.83-2.49,2.49-2.49h6.18v-5.26h-7.57c-.32,0-.59-.09-.79-.26-.21-.18-.31-.46-.31-.84s.11-.64.32-.83c.21-.18.47-.28.78-.28h7.3c.4,0,.73.04.99.12.26.08.53.25.8.51.27.26.45.53.54.81.09.29.13.66.13,1.13v4.51c0,.46-.04.83-.13,1.12-.09.29-.26.56-.53.81-.26.25-.54.42-.82.51-.29.09-.61.13-.98.13h-6.2v5.26Z"/>
    <path class="cls-3" d="M225.76,662.63v-6.42c0-.33.08-.59.25-.8.17-.21.45-.31.85-.31s.66.1.84.31c.18.21.26.47.26.8v6.42c.32,0,.59.09.79.26.21.18.31.46.31.84s-.11.64-.32.83c-.21.18-.47.27-.78.27v4.47c0,.73-.37,1.1-1.1,1.1s-1.1-.37-1.1-1.1v-4.47h-6.47v-10.45c0-.32.08-.59.25-.79.17-.21.45-.31.85-.31s.66.1.84.31c.18.21.26.47.26.79v8.25h4.27Z"/>
    <path class="cls-3" d="M238.68,660.12c-.32,0-.56-.02-.7-.07s-.28-.15-.41-.31c-.12-.16-.2-.33-.23-.49-.03-.17-.04-.35-.04-.54v-1.23c0-.13,0-.28.01-.45,0-.17.08-.34.22-.53.14-.18.3-.3.48-.35.18-.05.41-.08.67-.08h1.58c.32,0,.56.02.7.07.15.04.28.15.41.31.12.16.2.33.23.5.03.17.04.35.04.54v1.23c0,.13,0,.28-.01.45,0,.17-.08.35-.22.53-.14.18-.3.3-.48.35-.18.05-.41.08-.67.08h-1.58ZM238.68,667.6c-.32,0-.56-.02-.7-.07s-.28-.15-.41-.31c-.12-.16-.2-.33-.23-.5-.03-.17-.04-.35-.04-.54v-1.23c0-.13,0-.28.01-.45s.08-.34.22-.53c.14-.18.3-.3.48-.35.18-.05.41-.08.67-.08h1.58c.32,0,.56.02.7.07.15.04.28.15.41.31.12.16.2.33.23.5.03.17.04.35.04.54v1.23c0,.13,0,.28-.01.45s-.08.34-.22.53c-.14.18-.3.3-.48.35-.18.05-.41.08-.67.08h-1.58Z"/>
    <path class="cls-3" d="M258.54,653.28c.62,0,1.14.21,1.56.64.43.42.64.95.64,1.56v12.72c0,.63-.21,1.16-.63,1.57s-.94.63-1.57.63h-6.47c-.62,0-1.14-.21-1.56-.64-.43-.43-.64-.95-.64-1.56v-12.72c0-.62.21-1.14.64-1.56.43-.43.95-.64,1.56-.64h6.47ZM258.54,668.19v-12.72h-6.47v12.72h6.47Z"/>
    <path class="cls-3" d="M274.38,653.28c.62,0,1.14.21,1.56.64.43.42.64.95.64,1.56v12.72c0,.63-.21,1.16-.63,1.57s-.94.63-1.57.63h-6.47c-.62,0-1.14-.21-1.56-.64-.43-.43-.64-.95-.64-1.56v-12.72c0-.62.21-1.14.64-1.56.43-.43.95-.64,1.56-.64h6.47ZM274.38,668.19v-12.72h-6.47v12.72h6.47Z"/>
    <path class="cls-3" d="M286.2,660.12c-.32,0-.56-.02-.7-.07s-.28-.15-.41-.31c-.12-.16-.2-.33-.23-.49-.03-.17-.04-.35-.04-.54v-1.23c0-.13,0-.28.01-.45,0-.17.08-.34.22-.53.14-.18.3-.3.48-.35.18-.05.41-.08.67-.08h1.58c.32,0,.56.02.7.07.15.04.28.15.41.31.12.16.2.33.23.5.03.17.04.35.04.54v1.23c0,.13,0,.28-.01.45,0,.17-.08.35-.22.53-.14.18-.3.3-.48.35-.18.05-.41.08-.67.08h-1.58ZM286.2,667.6c-.32,0-.56-.02-.7-.07s-.28-.15-.41-.31c-.12-.16-.2-.33-.23-.5-.03-.17-.04-.35-.04-.54v-1.23c0-.13,0-.28.01-.45s.08-.34.22-.53c.14-.18.3-.3.48-.35.18-.05.41-.08.67-.08h1.58c.32,0,.56.02.7.07.15.04.28.15.41.31.12.16.2.33.23.5.03.17.04.35.04.54v1.23c0,.13,0,.28-.01.45s-.08.34-.22.53c-.14.18-.3.3-.48.35-.18.05-.41.08-.67.08h-1.58Z"/>
    <path class="cls-3" d="M306.06,653.28c.62,0,1.14.21,1.56.64.43.42.64.95.64,1.56v12.72c0,.63-.21,1.16-.63,1.57s-.94.63-1.57.63h-6.47c-.62,0-1.14-.21-1.56-.64-.43-.43-.64-.95-.64-1.56v-12.72c0-.62.21-1.14.64-1.56.43-.43.95-.64,1.56-.64h6.47ZM306.06,668.19v-12.72h-6.47v12.72h6.47Z"/>
    <path class="cls-3" d="M321.9,653.28c.62,0,1.14.21,1.56.64.43.42.64.95.64,1.56v12.72c0,.63-.21,1.16-.63,1.57s-.94.63-1.57.63h-6.47c-.62,0-1.14-.21-1.56-.64-.43-.43-.64-.95-.64-1.56v-12.72c0-.62.21-1.14.64-1.56.43-.43.95-.64,1.56-.64h6.47ZM321.9,668.19v-12.72h-6.47v12.72h6.47Z"/>
  </g>
  <g>
    <rect class="cls-3" x="798.66" y="178.2" width="48.75" height="344.77" transform="translate(1646.06 701.17) rotate(-180)"/>
    <rect class="cls-3" x="711.05" y="178.2" width="48.75" height="344.77" transform="translate(1470.85 701.17) rotate(-180)"/>
    <rect class="cls-3" x="623.45" y="178.2" width="48.75" height="344.77" transform="translate(1295.64 701.17) rotate(-180)"/>
    <rect class="cls-3" x="535.66" y="178.2" width="48.75" height="344.77" transform="translate(1120.06 701.17) rotate(-180)"/>
    <rect class="cls-3" x="450.15" y="178.2" width="48.75" height="344.77" transform="translate(949.04 701.17) rotate(-180)"/>
  </g>
</svg>