<?xml version="1.0" encoding="UTF-8"?>
<svg id="Capa_1" data-name="Capa 1" xmlns="http://www.w3.org/2000/svg" viewBox="0 0 1280 800">
  <defs>
    <style>
      .cls-1 {
        fill: #fff;
      }
    </style>
  </defs>
  <path class="cls-1" d="M1265.45,24.17v751.66H12.12V24.17h1253.34ZM1258.37,31.84H19.79v736.32h1238.58V31.84Z"/>
  <rect class="cls-1" x="837.64" y="127.42" width="60.19" height="423.62"/>
  <rect class="cls-1" x="730.25" y="127.42" width="60.19" height="423.62"/>
  <rect class="cls-1" x="622.26" y="127.42" width="60.19" height="423.62"/>
  <rect class="cls-1" x="514.28" y="127.42" width="60.19" height="423.62"/>
  <rect class="cls-1" x="409.24" y="127.42" width="60.19" height="423.62"/>
  <path class="cls-1" d="M867.14,633.05v-49.26c0-3.79,8.85-3.14,8.85.59v65.19h-11.51l-22.72-50.74v46.9c0,5-9.44,5-9.44,0v-64.6h11.51l23.31,51.92Z"/>
  <path class="cls-1" d="M425.17,612.4l20.79,30.84c2.01,5.26-4.31,8.73-7.8,4.26l-24.17-34.7-1.8-.4v33.33c0,5-9.44,5-9.44,0v-64.6h32.16c3.78,0,9.59,5.07,10.78,8.69,1.36,4.12,1.32,12.7-.92,16.51-1.28,2.19-6.28,6.07-8.68,6.07h-10.92ZM432.55,589.98c-6.12-.85-14.03.63-20.36,0v13.57h21.54c.37,0,3.16-1.2,3.44-1.9.78-1.89.87-8.77-.8-10.18-.45-.38-3.23-1.41-3.82-1.49Z"/>
  <path class="cls-1" d="M960.97,612.4l20.79,30.84c2.02,5.26-4.31,8.73-7.8,4.26l-24.17-34.7-1.8-.4v32.74c0,6.3-9.44,4.88-9.44,1.18v-65.19h32.16c2.36,0,7.35,3.37,8.86,5.3,4.38,5.59,4.09,18.86-2.12,23.28-.69.49-5.11,2.69-5.57,2.69h-10.92ZM968.34,589.98c-6.12-.85-14.03.63-20.36,0v13.57h21.54c.24,0,3.03-1.21,3.25-1.61.89-5.19,2.3-11.02-4.43-11.96Z"/>
  <path class="cls-1" d="M241.07,620.07v20.65h31.57c3.79,0,3.14,8.85-.59,8.85h-40.42v-30.97c0-3.6,5-7.96,8.56-7.96h26.26v-19.76l-.89-.88h-31.27c-2.76,0-4.53-7.92,1.21-8.82,9.95.71,21.49-1.08,31.24-.04,4.28.46,7.91,3.7,8.5,8.02.64,4.7.56,17.52-.01,22.3-.42,3.55-2.03,6.2-5.41,7.57-.45.18-3.47,1.05-3.67,1.05h-25.08Z"/>
  <path class="cls-1" d="M357.9,610.63h25.37v-26.84c0-2.51,8.22-5.46,8.88,1.74l-.07,60.76c-.8,5.13-8.81,3.28-8.81.63v-26.84h-25.37v26.25c0,1.45-2.92,3.22-4.44,3.29-4.44.18-4.77-3.26-5.03-6.8-1.31-18.27.98-38.16.09-56.6,1-8.32,9.37-4.66,9.37-1.84v26.25Z"/>
  <path class="cls-1" d="M817.28,581.13c4.71,1.01,3.32,8.85.59,8.85h-31.27l-.89.88v19.76h13.87c.33,0,2.35,1.06,2.69,1.44,2.37,2.68.3,8-3.28,8h-13.28v19.76l.89.88h31.27c3.56,0,3.24,8.85-.59,8.85h-40.42v-68.44h40.42Z"/>
  <path class="cls-1" d="M659.44,610.63h13.87c.16,0,2.54,1.32,2.7,1.57,1.72,2.69.1,7.87-3.29,7.87h-13.28v19.76l.89.88h31.27c3,0,3.57,8.85-1.18,8.85h-39.83v-68.44h40.42c4.1,0,3.39,8.85.59,8.85h-31.27l-.89.88v19.76Z"/>
  <path class="cls-1" d="M563.25,589.98v20.65h13.28c5.27,0,4.87,9.44,0,9.44h-13.28v20.65h32.16c1.67,0,2.35,4.07,2.05,5.59-.21,1.08-2.42,3.26-3.23,3.26h-39.83v-68.44h40.42c3.32,0,3.81,8.85,0,8.85h-31.57Z"/>
  <path class="cls-1" d="M460.2,645.82c-3.97-4.01-4.85-13.66,2.39-12.75,4.33.54,2.55,4.89,4.18,6.48s18.11,1.48,21.25,1.17c.81-.08,3.58-.24,3.26-1.47l-32.95-43.18c-3.66-7.44.43-14.03,8.45-14.94,5.18-.59,17.18-.52,22.42,0,5.33.53,10.95,4.82,11.49,10.39.38,3.95-1.92,6.89-6.03,6.01-4.72-1.01-.92-6.43-6.18-7.41-2.89-.54-17.67-.66-20.5-.14-.87.16-1.5.41-1.49,1.45l33.07,43.67c3.81,7.83-1.94,13.82-9.73,14.49-5.24.45-21.66.61-25.92-1.26-.93-.41-2.99-1.8-3.69-2.51Z"/>
  <path class="cls-1" d="M1030.43,648.23c-7.82,7.61-10.38-13.17-11.4-13.44l-18.44.12c-1.7,3.34-3.03,13.73-7.01,14.57-3.12.66-6.41-2.07-5.33-5.36,6.96-18.62,10.03-40.68,17.15-58.98,2-5.14,5.97-5.75,8.71-.79l17.3,60.62c.27.93-.37,2.68-.97,3.26ZM1003.45,625.38h12.98l-6.78-21.83-6.2,21.83Z"/>
  <path class="cls-1" d="M76.31,702.24c26.74-2.41,28.41,38.93,2.16,39.39-24.7.43-27.05-37.14-2.16-39.39Z"/>
  <path class="cls-1" d="M295.94,618.3h16.52v-27.43c0-1.85,7.12-4.47,8.59.27l.23,26.81c5.94.9,5.92,8.91,0,9.54-.32,5.72.54,12.05.06,17.69-.59,6.89-8.88,4.22-8.88,1.74v-19.76h-25.96v-42.77c0-3.7,9.44-5.12,9.44,1.18v32.74Z"/>
  <path class="cls-1" d="M929.1,581.13v13.86c0,2.32-4.2,2.94-6.07,2.53-4.65-1.03-1.74-6.18-3.34-7.29l-7.71-.26v56.34c0,3.7-9.44,5.12-9.44-1.18v-55.16h-7.67c1.2,4.85-2.98,10.27-7.87,7.13-.25-.16-1.57-2.55-1.57-2.7v-13.27h43.67Z"/>
  <path class="cls-1" d="M1143.3,72.55h5.31v17.99c-.74,1.65-4.94.51-5.31.88-.5,2.78,1.54,9.33-2.08,10.02l-66.72-.52-.81-1.55.29-35.66,1.48-1.47h66.06c.36.33,1.78,1.59,1.78,1.76v8.55ZM1138.58,96.74v-29.2l-.89-.88h-58.42l-.89.88v29.2h60.19Z"/>
  <path class="cls-1" d="M763.73,641.46c2.65,2.5,1.17,7.21-2.64,7.97s-18.12.45-21.81-.93c-3.15-1.18-4.55-2.74-6.33-5.47-3-4.59-11.3-21.24-11.58-26.19-.39-6.96,7.46-22.69,11.35-28.81,1.49-2.35,3-4.39,5.64-5.57,3.98-1.78,17.66-1.88,22.28-1.35,5.65.65,5.12,7.73,1.63,8.74-4.94,1.43-16.98-1.78-20.86,1.56-1.22,1.05-9.27,17.06-10.1,19.4-1.5,4.18-1.35,5.42.2,9.46s5.65,12.3,7.95,16.25c1.97,3.39,3.07,3.83,7.03,4.18,3.26.29,15.63-.77,17.25.76Z"/>
  <path class="cls-1" d="M632.15,581.26c2.66-.43,4.95.16,5.42,3.15l-.1,55.29c-2.33,7.14-7.1,9.44-14.3,9.89-11.43.73-19.46-1.92-20.41-14.46-.28-3.66-1.17-15.96,3.28-16.82,11.44-2.21,2.73,19.02,7.95,21.51,2.58,1.23,12.6,1.38,14.2-1.14.59-.93.49-1.37.59-2.36,1.56-16.08-1.9-35.52-.05-51.38.28-2.36,1.01-3.31,3.41-3.69Z"/>
  <path class="cls-1" d="M1046.53,640.72h32.16c1.95,0,2.91,5.88,1.32,7.52-.1.1-2.36,1.33-2.5,1.33h-39.83v-65.78c0-3.59,8.85-3.26,8.85,0v56.93Z"/>
  <path class="cls-1" d="M531.81,633.82c1.75,1.41,1.76,10.19,1.33,12.49-.82,4.42-16.35,5.35-17.13-.54-.39-2.92-.67-10.62,2.07-12.15,1.67-.94,12.24-.99,13.73.21Z"/>
  <path class="cls-1" d="M1173.1,70.19c4.18.74,5.25,7.93,1.71,9.97-1.58.91-2.59.46-4.07.66-.58.08-1.29-.19-.88.87.7,1.78,8.64,9.96,6.47,11.5-.52.37-2.05-.08-2.68-.53-2.32-1.68-5.61-9.79-8.52-11.84v11.5c0,.64-1.86,1.12-2.58.92-.36-.12-.97-1.4-.97-1.51v-20.65l.89-.88c3.23.39,7.57-.54,10.62,0ZM1173.33,73.79l-8.2-.66v4.73c3.98-.44,9.54,2.01,8.2-4.07Z"/>
  <path class="cls-1" d="M231.46,711.06c1.84-.42,10.04-.54,10.71,1.43.31.93.36,16.77.09,18.22-.53,2.84-11.76,3.15-13.14.15-.71-1.54-.75-14.44-.4-16.64.26-1.64,1.08-2.77,2.74-3.16ZM239.3,713.88c-2.45.34-5.8-.89-7.67.88v14.45h7.67v-15.34Z"/>
  <path class="cls-1" d="M250.93,711.06c1.84-.42,10.04-.54,10.71,1.43.31.93.36,16.77.09,18.22-.53,2.84-11.76,3.15-13.14.15-.71-1.54-.75-14.44-.4-16.64.26-1.64,1.08-2.77,2.74-3.16ZM258.77,713.88c-2.45.34-5.8-.89-7.67.88v14.45h7.67v-15.34Z"/>
  <path class="cls-1" d="M173.04,711.06c1.84-.42,10.04-.54,10.71,1.43.31.93.36,16.77.09,18.22-.53,2.84-11.76,3.15-13.14.15-.71-1.54-.75-14.44-.4-16.64.26-1.64,1.08-2.77,2.74-3.16ZM180.88,713.88c-2.45.34-5.8-.89-7.67.88v14.45h7.67v-15.34Z"/>
  <path class="cls-1" d="M192.51,711.06c1.84-.42,10.04-.54,10.71,1.43.31.93.36,16.77.09,18.22-.53,2.84-11.76,3.15-13.14.15-.71-1.54-.75-14.44-.4-16.64.26-1.64,1.08-2.77,2.74-3.16ZM200.35,713.88c-2.45.34-5.8-.89-7.67.88v14.45h7.67v-15.34Z"/>
  <path class="cls-1" d="M1197.59,70.19l.55,2-.84.95h-10.92v7.08c8.04-1.05,8.04,3.99,0,2.94v7.08h11.21v2.95h-14.75v-22.12l.89-.88h13.87Z"/>
  <path class="cls-1" d="M114.79,723.32v5.9h9.15c2.08,0,2.08,3.54,0,3.54h-11.21l-.89-.88v-9.44c0-.61,1.45-2.06,2.07-2.06h8.56v-6.49h-9.74l-.88-1.47c.46-2.26,11.47-1.89,12.98-.6,1.09.93,1.13,11.51-.89,11.51h-9.15Z"/>
  <path class="cls-1" d="M1210.28,93.2c-1.94-.55-5.93-8.89-5.99-11.01s3.52-9.94,5.12-11.11c1.45-1.06,8.8-1.43,9.47-.54l.29,2.03c-1.04,1.42-5.78-.39-7.98,1.48-.82.69-3.59,6.5-3.59,7.65l3.7,8.43,7.49.18.06,2.89h-8.56Z"/>
  <path class="cls-1" d="M136.03,722.73h4.72v-8.55c0-.48,1.47-1.18,2.06-.88,1.76.55.48,7.22.91,9.03.12.51,1.28.2,1.24,1.27-.05,1.28-1.04,1.97-1.22,3-.31,1.78.22,3.73-.08,5.52h-2.84s-.05-6.43-.05-6.43h-7.67s0-13.86,0-13.86l1.47-.88c.28.37,1.48,1.29,1.48,1.47v10.32Z"/>
  <path class="cls-1" d="M160.14,719.69l-4.96-.46c-1.43-3.92,1.74-6.29,5.11-3.93,1.03,1.28.46,3.06-.14,4.4Z"/>
  <path class="cls-1" d="M218.56,719.69l-4.96-.46c-1.43-3.92,1.74-6.29,5.11-3.93,1.03,1.28.46,3.06-.14,4.4Z"/>
  <path class="cls-1" d="M160.14,723.99c.6,1.33,1.18,3.11.14,4.4-3.37,2.36-6.53-.01-5.11-3.93l4.96-.46Z"/>
  <path class="cls-1" d="M218.56,723.99c.6,1.33,1.18,3.11.14,4.4-3.37,2.36-6.53-.01-5.11-3.93l4.96-.46Z"/>
  <path class="cls-1" d="M1101.11,94.97l-.79-.98c-1.01-8.28.39-16.59-.09-24.99,5.43,1.03,11.92-2.27,16.53.89v24.19l-.89.88h-14.75Z"/>
  <path class="cls-1" d="M1096.69,94.97h-15.05l-.89-.88v-25.07c3.19-1.04,5.67-.15,8.56,0,2.58.13,6.03-.72,7.96.89v23.6c0,.2-.78.9-.59,1.47Z"/>
  <polygon class="cls-1" points="1136.22 69.01 1136.22 94.09 1135.34 94.97 1120.59 94.97 1119.7 94.09 1119.7 69.9 1120.59 69.01 1136.22 69.01"/>
</svg>